<?xml version="1.0" encoding="UTF-8" standalone="no"?><!DOCTYPE svg PUBLIC "-//W3C//DTD SVG 1.1//EN" "http://www.w3.org/Graphics/SVG/1.1/DTD/svg11.dtd"><svg width="100%" height="100%" viewBox="0 0 2291 2800" version="1.1" xmlns="http://www.w3.org/2000/svg" xmlns:xlink="http://www.w3.org/1999/xlink" xml:space="preserve" xmlns:serif="http://www.serif.com/" style="fill-rule:evenodd;clip-rule:evenodd;stroke-linejoin:round;stroke-miterlimit:2;"><g><g><g><g><g><g><path d="M933.556,2355.3c84.104,29.529 407.166,75.257 514.17,-225.6c110.174,-309.769 37.638,92.873 37.638,92.873l-67.633,91.049l-139.878,81.536l-155.248,17.666l-122.969,-13.589l-66.08,-43.935Z" style="fill:#a2fa9c;"/></g><path d="M1153.61,324.602c72.465,32.413 190.135,174.053 236.528,286.416c112.897,320.521 -46.008,589.796 -320.767,805.525l84.239,188.876c349.032,-61.931 565.475,156.455 530.576,414.82c-23.411,173.325 -172.035,298.628 -246.049,349.054c-145.794,99.329 -341.922,132.577 -531.59,108.761c-297.754,-37.39 -473.79,-160.666 -571.008,-390.783c-66.049,-213.632 19.789,-413.355 238.612,-600.899c91.587,-77.44 177.533,-136.577 289.651,-214.018c-153.63,-309.262 -126.414,-591.938 39.555,-812.542c89.593,-119.252 173.493,-170.114 250.253,-135.21Zm-190.975,1175.22c-101.337,69.109 -189.221,139.197 -266.905,207.091c-122.393,116.155 -180.262,237.989 -140.969,368.374c55.684,146.162 231.301,242.592 415.112,247.418c199.337,5.233 340.65,-56.051 442.14,-197.445c98.035,-162.924 39.907,-299.899 -49.116,-373.432c-134.433,-111.043 -353.947,-58.182 -432.141,63.551c61.062,-16.253 136.498,-21.446 203.878,19.405c163.867,121.597 -87.72,281.286 -243.314,196.302c-177.144,-80.527 -134.65,-289.036 126.061,-388.283l-54.746,-142.981Zm128.601,-868.98c-178.647,147.352 -220.327,360.271 -115.077,567.292c184.746,-147.459 330.834,-334.575 269.061,-529.495c-30.714,-63.025 -79.641,-81.496 -153.984,-37.797Zm601.381,1085.48c-58.087,-41.244 -32.932,-109.418 43.797,-153.454c100.882,-46.503 172.267,-9.051 162.115,61.017c-26.148,83.732 -132.742,132.639 -205.912,92.437Zm121.386,114.126c97.836,-59.143 186.257,-1.697 157.68,65.935c-47.711,75.687 -116.092,90.671 -175.63,73.949c-70.045,-32.244 -33.166,-108.983 17.95,-139.884Z" style="fill:#a2fa9c;"/></g></g><g><g><g><path d="M933.556,2355.3c84.104,29.529 407.166,75.257 514.17,-225.6c110.174,-309.769 37.638,92.873 37.638,92.873l-67.633,91.049l-139.878,81.536l-155.248,17.666l-122.969,-13.589l-66.08,-43.935Z" style="fill:#a2fa9c;"/></g><path d="M1153.61,324.602c72.465,32.413 190.135,174.053 236.528,286.416c112.897,320.521 -46.008,589.796 -320.767,805.525l84.239,188.876c349.032,-61.931 565.475,156.455 530.576,414.82c-23.411,173.325 -172.035,298.628 -246.049,349.054c-145.794,99.329 -341.922,132.577 -531.59,108.761c-297.754,-37.39 -473.79,-160.666 -571.008,-390.783c-66.049,-213.632 19.789,-413.355 238.612,-600.899c91.587,-77.44 177.533,-136.577 289.651,-214.018c-153.63,-309.262 -126.414,-591.938 39.555,-812.542c89.593,-119.252 173.493,-170.114 250.253,-135.21Zm-190.975,1175.22c-101.337,69.109 -189.221,139.197 -266.905,207.091c-122.393,116.155 -180.262,237.989 -140.969,368.374c55.684,146.162 231.301,242.592 415.112,247.418c199.337,5.233 340.65,-56.051 442.14,-197.445c98.035,-162.924 39.907,-299.899 -49.116,-373.432c-134.433,-111.043 -353.947,-58.182 -432.141,63.551c61.062,-16.253 136.498,-21.446 203.878,19.405c163.867,121.597 -87.72,281.286 -243.314,196.302c-177.144,-80.527 -134.65,-289.036 126.061,-388.283l-54.746,-142.981Zm128.601,-868.98c-178.647,147.352 -220.327,360.271 -115.077,567.292c184.746,-147.459 330.834,-334.575 269.061,-529.495c-30.714,-63.025 -79.641,-81.496 -153.984,-37.797Zm601.381,1085.48c-58.087,-41.244 -32.932,-109.418 43.797,-153.454c100.882,-46.503 172.267,-9.051 162.115,61.017c-26.148,83.732 -132.742,132.639 -205.912,92.437Zm121.386,114.126c97.836,-59.143 186.257,-1.697 157.68,65.935c-47.711,75.687 -116.092,90.671 -175.63,73.949c-70.045,-32.244 -33.166,-108.983 17.95,-139.884Z" style="fill:#a2fa9c;"/></g></g></g><path d="M1405.45,966.26c-48.163,200.619 -241.902,394.895 -439.927,531.714c-234.952,162.333 -271.367,204.691 -405.706,360.886l-137.752,-210.882c53.831,-67.172 88.432,-109.455 195.018,-196.031c86.089,-69.928 183.982,-139.195 245.621,-178.918c41.459,-26.717 95.557,-70.328 135.206,-101.823c285.539,-226.818 261.879,-397.169 262.671,-406.719l144.869,201.773Z" style="fill:#a2fa9c;"/></g></g></svg>