<?xml version="1.0" encoding="UTF-8" standalone="no"?><!DOCTYPE svg PUBLIC "-//W3C//DTD SVG 1.1//EN" "http://www.w3.org/Graphics/SVG/1.1/DTD/svg11.dtd"><svg width="100%" height="100%" viewBox="0 0 992 591" version="1.1" xmlns="http://www.w3.org/2000/svg" xmlns:xlink="http://www.w3.org/1999/xlink" xml:space="preserve" xmlns:serif="http://www.serif.com/" style="fill-rule:evenodd;clip-rule:evenodd;stroke-linejoin:round;stroke-miterlimit:2;"><g><path d="M495.653,82.723c273.731,0 495.633,221.903 495.633,495.634l0,12.4l-991.286,0l0,-12.4c-0,-273.731 221.903,-495.634 495.633,-495.634l0.02,0Zm214.802,219.454c-31.025,0 -56.213,24.442 -56.213,54.548c-0,30.105 25.188,54.547 56.213,54.547c31.025,0 56.213,-24.442 56.213,-54.547c-0,-30.106 -25.188,-54.548 -56.213,-54.548Zm-429.624,0c-31.024,0 -56.213,24.442 -56.213,54.548c0,30.105 25.189,54.547 56.213,54.547c31.025,0 56.213,-24.442 56.213,-54.547c0,-30.106 -25.188,-54.548 -56.213,-54.548Z" style="fill:#2ead25;"/><path d="M37.333,97.305c-3.165,-11.544 1.864,-23.769 12.237,-29.744c10.372,-5.975 23.471,-4.192 31.869,4.338c74.377,75.548 180.69,183.533 180.69,183.533l-65.419,64.406l-159.368,-222.501c-0,-0 -0.003,-0.011 -0.009,-0.032Z" style="fill:#2ead25;"/><path d="M926.815,98.72c3.079,-12.04 -2.3,-24.65 -13.122,-30.761c-10.822,-6.11 -24.398,-4.202 -33.117,4.654c-74.342,75.512 -179.988,182.819 -179.988,182.819l68.088,67.034l158.132,-223.719c-0,0 0.002,-0.009 0.007,-0.027Z" style="fill:#2ead25;"/></g></svg>